# xmcd CD database file
#
# Track frame offsets:
#	182
#	14762
#	26907
#	40382
#	57295
#	71225
#	86050
#	98495
#	114415
#	130990
#
# Disc length: 1932 seconds
#
# Revision: 3
# Processed by: cddbd v1.5.2PL0 Copyright (c) Steve Scherf et al.
# Submitted via: CDex 1.70beta2
#
DISCID=8c078a0a
DTITLE=The Burch Sisters - New Fire
DYEAR=1989
DGENRE=Country
TTITLE0=Everytime You Go Outside I Hope It Rains
TTITLE1=I Don't Want To Mention Any Names
TTITLE2=The Way I Want To Go
TTITLE3=Old Flame, New Fire
TTITLE4=I Missed That Train Again
TTITLE5=Cold Day In My Heart
TTITLE6=What Do Lonely People Do
TTITLE7=What We Don't Know Won't Hurt Us
TTITLE8=Open Arms
TTITLE9=The Only Love You Need
EXTD=YEAR: 1989
EXTT0=
EXTT1=
EXTT2=
EXTT3=
EXTT4=
EXTT5=
EXTT6=
EXTT7=
EXTT8=
EXTT9=
PLAYORDER=
